<?xml version="1.0" encoding="UTF-8" standalone="no"?>
<!-- Created with Inkscape (http://www.inkscape.org/) -->

<svg
   width="1328.118"
   height="433.33173"
   viewBox="0 0 1328.118 433.33173"
   version="1.1"
   id="svg1"
   inkscape:version="1.4.2 (ebf0e940, 2025-05-08)"
   sodipodi:docname="Logo 2 white.svg"
   inkscape:export-filename="Logo 2 white.png"
   inkscape:export-xdpi="96"
   inkscape:export-ydpi="96"
   xmlns:inkscape="http://www.inkscape.org/namespaces/inkscape"
   xmlns:sodipodi="http://sodipodi.sourceforge.net/DTD/sodipodi-0.dtd"
   xmlns="http://www.w3.org/2000/svg"
   xmlns:svg="http://www.w3.org/2000/svg">
  <sodipodi:namedview
     id="namedview1"
     pagecolor="#ffffff"
     bordercolor="#999999"
     borderopacity="1"
     inkscape:showpageshadow="2"
     inkscape:pageopacity="0"
     inkscape:pagecheckerboard="0"
     inkscape:deskcolor="#d1d1d1"
     inkscape:document-units="px"
     showguides="true"
     inkscape:zoom="0.5"
     inkscape:cx="246"
     inkscape:cy="594"
     inkscape:window-width="3120"
     inkscape:window-height="1387"
     inkscape:window-x="57"
     inkscape:window-y="25"
     inkscape:window-maximized="0"
     inkscape:current-layer="g42">
    <sodipodi:guide
       position="-0.55012723,750.93141"
       orientation="1,0"
       id="guide4"
       inkscape:locked="false" />
    <sodipodi:guide
       position="487.35355,907.58271"
       orientation="1,0"
       id="guide5"
       inkscape:locked="false" />
    <sodipodi:guide
       position="-89.250006,400.72212"
       orientation="0,-1"
       id="guide43"
       inkscape:locked="false" />
    <sodipodi:guide
       position="24.999992,2.9721631"
       orientation="0,-1"
       id="guide44"
       inkscape:locked="false" />
    <inkscape:page
       x="0"
       y="0"
       width="1328.118"
       height="433.33173"
       id="page2"
       margin="0"
       bleed="0" />
  </sodipodi:namedview>
  <defs
     id="defs1" />
  <g
     id="text1"
     style="font-weight:800;font-size:247.261px;font-family:Orbitron;-inkscape-font-specification:'Orbitron Ultra-Bold';letter-spacing:0px;fill:#f9f9f9;stroke-width:11.5961"
     aria-label="ARNALDO&#10;PANGIA"
     inkscape:label="ARNALDO Text"
     inkscape:highlight-color="#000000"
     transform="translate(-220.86828,-327.39044)">
    <path
       id="path13"
       style="font-weight:bold;font-family:Figtree;-inkscape-font-specification:'Figtree Bold';display:inline;fill:#f9f9f9"
       inkscape:label="ARNALDO"
       d="m 1460.2207,357.4336 c -17.3083,0 -32.6401,3.79233 -45.9922,11.375 -13.1872,7.58267 -23.5716,18.13151 -31.1543,31.64844 -7.5827,13.35209 -11.3731,28.84642 -11.3731,46.48437 0,17.30827 3.7904,32.72135 11.3731,46.23828 7.5827,13.35209 18.0502,23.90288 31.4023,31.65039 13.5169,7.58267 29.0113,11.37305 46.4844,11.37305 17.1434,0 32.3088,-3.79038 45.4961,-11.37305 13.3521,-7.74751 23.7384,-18.2983 31.1563,-31.65039 7.5827,-13.51693 11.373,-28.93001 11.373,-46.23828 0,-17.47311 -3.7903,-32.88423 -11.373,-46.23633 -7.5827,-13.51693 -18.0503,-24.06772 -31.4024,-31.65039 -13.1872,-7.74751 -28.5171,-11.62109 -45.9902,-11.62109 z m -1036.51952,2.7207 -68.24414,173.08203 h 35.85351 l 14.83399,-38.07812 h 71.21289 l 14.83398,38.07812 h 35.85352 L 459.80079,360.1543 Z m 125.11328,0 v 173.08203 h 33.875 v -61.32031 h 19.5332 3.21484 3.21485 l 35.35742,61.32031 h 38.32617 L 642.2793,465.73438 c 9.89044,-4.4507 17.88527,-10.96149 23.98438,-19.5332 6.0991,-8.73655 9.14843,-18.79201 9.14843,-30.16602 0,-11.04433 -2.63721,-20.68766 -7.91211,-28.92969 -5.2749,-8.40687 -12.60993,-15.00087 -22.00585,-19.78125 -9.39592,-4.78038 -20.19242,-7.16992 -32.39063,-7.16992 z m 159.48437,0 v 173.08203 h 33.875 v -118.4375 l 86.04688,118.4375 h 33.62695 V 360.1543 H 828.22071 V 476.36719 L 743.65625,360.1543 Z m 242.5625,0 -68.24414,173.08203 h 35.85352 l 14.83594,-38.07812 h 71.21095 l 14.8359,38.07812 h 35.8516 L 986.9629,360.1543 Z m 125.11517,0 v 173.08203 h 110.0313 v -30.9082 h -76.1563 V 360.1543 Z m 132.7793,0 v 173.08203 h 55.3868 c 17.638,0 33.2155,-3.70912 46.7324,-11.12695 13.6817,-7.41783 24.3138,-17.63775 31.8965,-30.66016 7.7475,-13.02241 11.6211,-27.94015 11.6211,-44.7539 0,-16.97859 -3.8736,-31.89634 -11.6211,-44.75391 -7.5827,-13.02241 -18.2148,-23.24233 -31.8965,-30.66016 -13.5169,-7.41783 -29.0944,-11.12695 -46.7324,-11.12695 z m 251.4649,28.1875 c 10.7147,0 20.1104,2.55399 28.1875,7.66406 8.0772,4.94522 14.4235,11.78689 19.039,20.52344 4.6155,8.73655 6.9239,18.87326 6.9239,30.41211 0,11.37401 -2.3084,21.42947 -6.9239,30.16602 -4.4507,8.73656 -10.7157,15.66142 -18.7929,20.77148 -7.9123,4.94522 -17.1436,7.41602 -27.6934,7.41602 -10.7147,0 -20.1916,-2.4708 -28.4336,-7.41602 -8.2421,-5.11006 -14.6716,-12.03492 -19.2871,-20.77148 -4.6155,-8.73655 -6.9238,-18.79201 -6.9238,-30.16602 0,-11.53885 2.3083,-21.67556 6.9238,-30.41211 4.6155,-8.73655 10.9619,-15.57822 19.0391,-20.52344 8.242,-5.11007 17.5564,-7.66406 27.9414,-7.66406 z m -877.53124,2.71875 h 28.92969 c 8.40688,0 15.24853,2.3083 20.52343,6.92383 5.43974,4.61554 8.15821,10.63295 8.15821,18.05078 0,4.78038 -1.23443,9.06609 -3.70704,12.85742 -2.30777,3.79133 -5.52352,6.75746 -9.64453,8.90039 -3.95618,2.14293 -8.48955,3.21485 -13.59961,3.21485 h -30.66015 z m 659.94134,0.74219 h 21.5118 c 7.9124,0 15.2473,1.40083 22.0058,4.20312 6.7585,2.80229 12.6095,6.67588 17.5547,11.6211 5.1101,4.94522 9.0668,10.79817 11.8691,17.55664 2.8023,6.59363 4.2032,13.76421 4.2032,21.51172 0,7.74751 -1.4009,14.99934 -4.2032,21.75781 -2.8023,6.59363 -6.759,12.36337 -11.8691,17.30859 -4.9452,4.94522 -10.7962,8.81881 -17.5547,11.6211 -6.7585,2.80229 -14.0934,4.20507 -22.0058,4.20507 h -21.5118 z m -800.87884,10.63281 24.47851,62.80469 h -48.95898 z m 527.16015,0 24.47852,62.80469 H 944.4336 Z" />
    <path
       style="fill:#f9f9f9;fill-opacity:1;stroke-width:4.002"
       d="m 531.7443,327.39044 c 8.48528,247.48737 8.48528,247.48737 8.48528,247.48737"
       id="path33" />
  </g>
  <g
     inkscape:groupmode="layer"
     id="layer3"
     inkscape:label="Layer 2"
     inkscape:highlight-color="#ffffff"
     transform="translate(-229.00001,-327.39044)">
    <path
       style="font-weight:bold;font-size:247.261px;font-family:Figtree;-inkscape-font-specification:'Figtree Bold';letter-spacing:0px;display:inline;fill:#f9f9f9;stroke-width:11.5961"
       d="m 380.04882,757.75501 v -173.0827 h 64.28787 q 18.29731,0 32.39119,7.41783 14.09387,7.17057 22.00623,20.2754 7.91235,12.85757 7.91235,29.91858 0,16.81375 -7.66509,29.91858 -7.66509,13.10484 -21.01719,20.76993 -13.35209,7.41783 -30.90762,7.41783 h -33.13298 v 57.36455 z m 33.87476,-88.51944 h 32.39119 q 11.37401,0 18.54458,-7.41783 7.41783,-7.66509 7.41783,-19.53362 0,-11.86853 -8.15961,-19.28636 -7.91236,-7.41783 -20.52267,-7.41783 h -29.67132 z"
       id="path14"
       inkscape:label="P" />
    <path
       style="font-weight:bold;font-size:247.261px;font-family:Figtree;-inkscape-font-specification:'Figtree Bold';letter-spacing:10px;display:inline;fill:#f9f9f9;stroke-width:11.5961"
       d="m 512.33362,757.75501 68.24403,-173.0827 h 36.10011 l 68.24404,173.0827 h -35.85285 l -14.83566,-38.0782 h -71.21117 l -14.83566,38.0782 z m 61.81525,-67.99678 h 48.95768 l -24.47884,-62.80429 z"
       id="path15" />
    <path
       style="font-weight:bold;font-size:247.261px;font-family:Figtree;-inkscape-font-specification:'Figtree Bold';letter-spacing:0px;display:inline;fill:#f9f9f9;stroke-width:11.5961"
       d="m 715.69189,757.75501 v -173.0827 h 35.35832 l 84.56327,116.21267 V 584.67231 h 33.62749 v 173.0827 H 835.61348 L 749.56665,639.31699 v 118.43802 z m 271.49276,2.96713 q -26.45693,0 -46.97959,-11.37401 -20.2754,-11.62126 -31.89667,-31.6494 -11.62127,-20.27541 -11.62127,-46.48507 0,-26.20967 11.62127,-46.23781 11.62127,-20.2754 31.89667,-31.64941 20.52266,-11.62126 46.97959,-11.62126 15.82475,0 29.17675,4.69795 13.3521,4.69796 23.4898,13.10484 10.385,8.15961 17.3083,18.79183 l -27.6932,17.30827 q -4.2035,-6.67604 -11.1268,-11.86852 -6.676,-5.19249 -14.8356,-8.15962 -8.15964,-2.96713 -16.31925,-2.96713 -16.31922,0 -28.92954,7.66509 -12.61031,7.41783 -19.78088,20.52266 -7.17057,13.10484 -7.17057,30.41311 0,17.06101 6.92331,30.4131 7.17057,13.3521 20.02814,21.01719 12.85758,7.41783 29.67132,7.41783 12.61027,0 22.50077,-4.69796 9.8904,-4.94522 15.8247,-13.59936 5.9343,-8.65413 6.676,-20.2754 h -40.05625 v -26.45693 h 72.69475 v 21.01719 q -0.4945,23.73705 -10.6322,40.5508 -10.1377,16.56649 -27.6933,25.46789 -17.5555,8.65413 -40.05625,8.65413 z m 101.37665,-2.96713 v -173.0827 h 33.8748 v 173.0827 z m 54.6446,0 68.244,-173.0827 h 36.1001 l 68.2441,173.0827 h -35.8529 l -14.8356,-38.0782 h -71.2112 l -14.8357,38.0782 z m 61.8153,-67.99678 h 48.9576 L 1229.5,626.95394 Z"
       id="path16"
       inkscape:label="NGIA" />
  </g>
  <g
     inkscape:groupmode="layer"
     id="layer6"
     inkscape:label="Column"
     transform="translate(-229.00001,-327.39044)">
    <rect
       style="fill:#ee6c4d;fill-opacity:1;stroke-width:3.94657"
       id="rect43"
       width="36"
       height="397.75"
       x="229"
       y="360" />
  </g>
  <g
     inkscape:groupmode="layer"
     id="g42"
     inkscape:label="last A"
     transform="translate(558.64644,-103.03689)"
     style="display:inline">
    <path
       id="path42"
       style="font-weight:800;font-size:247.261px;font-family:Orbitron;-inkscape-font-specification:'Orbitron Ultra-Bold';letter-spacing:0px;display:inline;fill:#ee6c4d;fill-opacity:1;stroke-width:3.87423"
       inkscape:label="Orange triangle"
       d="m 441.75894,402.44939 -44.37891,101.77149 h 88.72071 z" />
    <rect
       style="font-weight:800;font-size:247.261px;font-family:Orbitron;-inkscape-font-specification:'Orbitron Ultra-Bold';letter-spacing:0px;fill:#f9f9f9;fill-opacity:1;stroke-width:5.45649"
       id="rect42"
       width="115.34679"
       height="29.96365"
       x="384.04739"
       y="484.27979"
       inkscape:label="Asta modificata" />
  </g>
  <g
     inkscape:groupmode="layer"
     id="g34"
     inkscape:label="first A"
     style="display:inline"
     transform="translate(-229.00001,-327.39044)">
    <path
       id="path34"
       style="font-weight:800;font-size:247.261px;font-family:Orbitron;-inkscape-font-specification:'Orbitron Ultra-Bold';letter-spacing:0px;display:inline;fill:#ee6c4d;fill-opacity:1;stroke-width:3.97754"
       inkscape:label="Orange triangle"
       d="m 449.89067,402.44939 -44.37891,107.27149 h 88.72071 z" />
    <rect
       style="font-weight:800;font-size:247.261px;font-family:Orbitron;-inkscape-font-specification:'Orbitron Ultra-Bold';letter-spacing:0px;fill:#f9f9f9;fill-opacity:1;stroke-width:5.45649"
       id="rect34"
       width="115.34679"
       height="29.96365"
       x="384.04739"
       y="484.27979"
       inkscape:label="Asta modificata" />
  </g>
  <g
     inkscape:groupmode="layer"
     id="layer4"
     inkscape:label="mid A"
     transform="translate(298.43115,-327.89685)"
     style="display:none">
    <path
       id="path17"
       style="font-weight:800;font-size:247.261px;font-family:Orbitron;-inkscape-font-specification:'Orbitron Ultra-Bold';letter-spacing:0px;display:inline;fill:#ee6c4d;fill-opacity:1;stroke-width:4.06011"
       inkscape:label="Orange triangle"
       d="m 441.75894,402.44939 -44.37891,111.77149 h 88.72071 z" />
    <rect
       style="font-weight:800;font-size:247.261px;font-family:Orbitron;-inkscape-font-specification:'Orbitron Ultra-Bold';letter-spacing:0px;fill:#000000;fill-opacity:1;stroke-width:5.45649"
       id="rect17"
       width="115.34679"
       height="29.96365"
       x="384.04739"
       y="484.27979"
       inkscape:label="Asta modificata" />
  </g>
</svg>
